<svg width="554" height="563" viewBox="0 0 554 563" fill="none" xmlns="http://www.w3.org/2000/svg">
<path d="M455.92 391.634C455.92 391.634 447.41 374.744 457.139 358.012C466.867 341.279 469.681 337.383 463.476 333.96C457.272 330.537 454.435 347.315 454.435 347.315C454.435 347.315 449.205 335.773 453.527 323.669C457.848 311.564 460.551 291.916 454.635 289.81C448.718 287.704 453.527 314.345 448.385 323.432C448.385 323.432 444.097 313.298 443.388 303.615C442.679 293.931 443.787 278.426 439.134 274.451C434.48 270.477 431.488 273.235 436.064 294.641C438.812 307.394 440.333 320.389 440.607 333.442C440.607 333.442 430.502 305.36 423.721 304.549C416.94 303.739 416.951 312.825 422.757 320.707C428.563 328.589 439.754 342.732 441.593 349.983C441.593 349.983 430.513 328.86 420.541 335.345C410.569 341.831 429.228 354.589 437.549 359.194C445.87 363.799 451.632 392.726 451.632 392.726L455.92 391.634Z" fill="#D8E9A8"/>
<path d="M449.194 398.604C449.194 398.604 457.493 381.556 447.543 364.993C437.593 348.429 434.724 344.545 440.895 341.043C447.067 337.541 450.114 354.273 450.114 354.273C450.114 354.273 455.188 342.653 450.712 330.627C446.236 318.602 443.277 298.975 449.139 296.791C455 294.607 450.59 321.315 455.787 330.323C455.787 330.323 459.953 320.189 460.529 310.449C461.105 300.71 459.798 285.261 464.407 281.23C469.016 277.199 472.019 279.901 467.731 301.363C465.155 314.156 463.805 327.174 463.698 340.232C463.698 340.232 473.437 312.015 480.207 311.103C486.977 310.19 487.088 319.289 481.382 327.249C475.675 335.21 464.673 349.499 462.933 356.796C462.933 356.796 473.747 335.514 483.808 341.854C493.869 348.193 475.376 361.209 467.122 365.939C458.867 370.668 453.471 399.651 453.471 399.651L449.194 398.604Z" fill="#D8E9A8"/>
<path d="M487.442 386.432H418.946L424.486 431.112H481.902L487.442 386.432Z" fill="#F0F0F0"/>
<path d="M365.263 103.66H240.48V243.982H365.263V103.66Z" fill="#E9E9E9"/>
<path d="M360.1 109.222H245.976V238.712H360.1V109.222Z" fill="#F4F4F4"/>
<path d="M278.23 109.222L245.976 231.979V165.522L260.734 109.222H278.23Z" fill="white"/>
<path d="M292.645 109.222L258.629 238.712H252.214L286.229 109.222H292.645Z" fill="white"/>
<path d="M360.1 144.534V211.001L352.876 238.712H335.38L360.1 144.534Z" fill="white"/>
<path d="M305.088 103.66H300.656V243.982H305.088V103.66Z" fill="#E9E9E9"/>
<path d="M362.87 132.136H242.652V136.64H362.87V132.136Z" fill="#E9E9E9"/>
<path d="M277 481.433C395.647 481.433 491.83 475.726 491.83 468.686C491.83 461.647 395.647 455.94 277 455.94C158.353 455.94 62.1699 461.647 62.1699 468.686C62.1699 475.726 158.353 481.433 277 481.433Z" fill="#F5F5F5"/>
<path d="M422.879 431.112H252.812C251.794 431.128 250.785 430.925 249.849 430.517C248.914 430.109 248.074 429.504 247.384 428.743C246.695 427.982 246.172 427.081 245.849 426.1C245.526 425.119 245.411 424.079 245.511 423.05L266.95 143.531C267.144 141.353 268.124 139.325 269.701 137.836C271.278 136.348 273.341 135.505 275.493 135.469H445.549C446.567 135.453 447.577 135.656 448.513 136.064C449.449 136.472 450.29 137.077 450.98 137.838C451.67 138.599 452.195 139.499 452.519 140.48C452.843 141.461 452.96 142.501 452.862 143.531L431.422 423.05C431.226 425.227 430.245 427.254 428.669 428.742C427.092 430.23 425.03 431.074 422.879 431.112Z" fill="#2E353A"/>
<path opacity="0.2" d="M422.879 431.112H252.812C251.794 431.128 250.785 430.925 249.849 430.517C248.914 430.109 248.074 429.504 247.384 428.743C246.695 427.982 246.172 427.081 245.849 426.1C245.526 425.119 245.411 424.079 245.511 423.05L266.95 143.531C267.144 141.353 268.124 139.325 269.701 137.836C271.278 136.348 273.341 135.505 275.493 135.469H445.549C446.567 135.453 447.577 135.656 448.513 136.064C449.449 136.472 450.29 137.077 450.98 137.838C451.67 138.599 452.195 139.499 452.519 140.48C452.843 141.461 452.96 142.501 452.862 143.531L431.422 423.05C431.226 425.227 430.245 427.254 428.669 428.742C427.092 430.23 425.03 431.074 422.879 431.112Z" fill="white"/>
<path d="M399.844 153.744H318.406C318.05 153.75 317.696 153.68 317.369 153.538C317.041 153.396 316.747 153.185 316.505 152.919C316.264 152.654 316.08 152.339 315.966 151.996C315.853 151.653 315.812 151.289 315.846 150.929L317.098 134.591C317.167 133.828 317.51 133.117 318.062 132.596C318.614 132.074 319.336 131.778 320.09 131.764H401.528C401.884 131.759 402.237 131.831 402.564 131.974C402.891 132.118 403.185 132.33 403.426 132.597C403.666 132.864 403.849 133.18 403.961 133.523C404.073 133.867 404.112 134.231 404.076 134.591L402.824 150.884C402.767 151.652 402.429 152.371 401.878 152.899C401.327 153.428 400.602 153.729 399.844 153.744Z" fill="#D8E9A8"/>
<path opacity="0.2" d="M399.844 153.744H318.406C318.05 153.75 317.696 153.68 317.369 153.538C317.041 153.396 316.747 153.185 316.505 152.919C316.264 152.654 316.08 152.339 315.966 151.996C315.853 151.653 315.812 151.289 315.846 150.929L317.098 134.591C317.167 133.828 317.51 133.117 318.062 132.596C318.614 132.074 319.336 131.778 320.09 131.764H401.528C401.884 131.759 402.237 131.831 402.564 131.974C402.891 132.118 403.185 132.33 403.426 132.597C403.666 132.864 403.849 133.18 403.961 133.523C404.073 133.867 404.112 134.231 404.076 134.591L402.824 150.884C402.767 151.652 402.429 152.371 401.878 152.899C401.327 153.428 400.602 153.729 399.844 153.744Z" fill="black"/>
<path d="M366.748 136.843H354.006L354.504 130.357C354.66 128.608 355.447 126.979 356.713 125.784C357.979 124.589 359.635 123.912 361.363 123.883C362.181 123.869 362.993 124.032 363.746 124.359C364.498 124.687 365.174 125.172 365.729 125.783C366.285 126.394 366.707 127.117 366.968 127.905C367.23 128.694 367.325 129.529 367.246 130.357L366.748 136.843Z" fill="#D8E9A8"/>
<path opacity="0.4" d="M366.748 136.843H354.006L354.504 130.357C354.66 128.608 355.447 126.979 356.713 125.784C357.979 124.589 359.635 123.912 361.363 123.883C362.181 123.869 362.993 124.032 363.746 124.359C364.498 124.687 365.174 125.172 365.729 125.783C366.285 126.394 366.707 127.117 366.968 127.905C367.23 128.694 367.325 129.529 367.246 130.357L366.748 136.843Z" fill="white"/>
<path d="M420.586 419.435H256.89L277.787 147.134H441.471L420.586 419.435Z" fill="white"/>
<path d="M384.697 161.39H332.4C331.561 161.402 330.73 161.234 329.96 160.897C329.19 160.56 328.498 160.062 327.93 159.435C327.363 158.808 326.931 158.066 326.665 157.258C326.398 156.45 326.302 155.594 326.383 154.746L327.048 146.099C327.209 144.305 328.016 142.634 329.315 141.408C330.613 140.182 332.312 139.487 334.084 139.455H386.393C387.232 139.443 388.063 139.611 388.834 139.948C389.605 140.285 390.297 140.783 390.866 141.41C391.434 142.036 391.867 142.778 392.134 143.586C392.402 144.394 392.5 145.25 392.42 146.099L391.755 154.746C391.589 156.542 390.778 158.213 389.475 159.438C388.173 160.664 386.472 161.359 384.697 161.39ZM333.885 141.718C332.716 141.738 331.595 142.197 330.738 143.005C329.881 143.814 329.348 144.915 329.242 146.099L328.577 154.746C328.523 155.306 328.585 155.872 328.76 156.405C328.935 156.939 329.219 157.429 329.594 157.844C329.968 158.258 330.425 158.588 330.933 158.811C331.441 159.034 331.99 159.145 332.544 159.138H384.864C386.036 159.118 387.159 158.658 388.018 157.848C388.877 157.037 389.411 155.933 389.517 154.746L390.182 146.099C390.233 145.539 390.168 144.975 389.991 144.442C389.814 143.91 389.528 143.421 389.153 143.008C388.778 142.595 388.322 142.267 387.814 142.045C387.306 141.822 386.757 141.711 386.204 141.718H333.885Z" fill="#D8E9A8"/>
<g opacity="0.4">
<path d="M384.697 161.39H332.4C331.561 161.402 330.73 161.234 329.96 160.897C329.19 160.56 328.498 160.062 327.93 159.435C327.363 158.808 326.931 158.066 326.665 157.258C326.398 156.45 326.302 155.594 326.383 154.746L327.048 146.099C327.209 144.305 328.016 142.634 329.315 141.408C330.613 140.182 332.312 139.487 334.084 139.455H386.393C387.232 139.443 388.063 139.611 388.834 139.948C389.605 140.285 390.297 140.783 390.866 141.41C391.434 142.036 391.867 142.778 392.134 143.586C392.402 144.394 392.5 145.25 392.42 146.099L391.755 154.746C391.589 156.542 390.778 158.213 389.475 159.438C388.173 160.664 386.472 161.359 384.697 161.39ZM333.885 141.718C332.716 141.738 331.595 142.197 330.738 143.005C329.881 143.814 329.348 144.915 329.242 146.099L328.577 154.746C328.523 155.306 328.585 155.872 328.76 156.405C328.935 156.939 329.219 157.429 329.594 157.844C329.968 158.258 330.425 158.588 330.933 158.811C331.441 159.034 331.99 159.145 332.544 159.138H384.864C386.036 159.118 387.159 158.658 388.018 157.848C388.877 157.037 389.411 155.933 389.517 154.746L390.182 146.099C390.233 145.539 390.168 144.975 389.991 144.442C389.814 143.91 389.528 143.421 389.153 143.008C388.778 142.595 388.322 142.267 387.814 142.045C387.306 141.822 386.757 141.711 386.204 141.718H333.885Z" fill="white"/>
</g>
<path d="M381.994 144.444H337.674C337.479 144.448 337.284 144.41 337.104 144.332C336.924 144.254 336.763 144.139 336.63 143.993C336.497 143.848 336.396 143.675 336.333 143.487C336.271 143.298 336.248 143.099 336.267 142.901L336.61 138.397C336.651 137.979 336.842 137.59 337.146 137.306C337.451 137.021 337.848 136.861 338.261 136.854H382.581C382.776 136.85 382.97 136.888 383.15 136.966C383.329 137.043 383.49 137.159 383.622 137.305C383.754 137.451 383.854 137.624 383.916 137.812C383.977 138 383.998 138.2 383.977 138.397L383.634 142.901C383.596 143.318 383.407 143.707 383.105 143.991C382.802 144.276 382.406 144.437 381.994 144.444Z" fill="#D8E9A8"/>
<path d="M369.296 206.069H286.684L286.961 202.522H369.573L369.296 206.069Z" fill="#D8E9A8"/>
<path d="M368.521 216.316H285.908L286.174 212.758H368.787L368.521 216.316Z" fill="#D8E9A8"/>
<path d="M367.734 226.563H285.122L285.388 223.004H368L367.734 226.563Z" fill="#D8E9A8"/>
<path d="M366.947 236.798H284.335L284.601 233.251H367.213L366.947 236.798Z" fill="#D8E9A8"/>
<path d="M421.151 236.798H387.445L390.082 202.522H423.788L421.151 236.798Z" fill="#D8E9A8"/>
<path d="M411.821 215.246C411.976 213.242 410.447 211.868 407.677 211.868C406.602 211.816 405.53 212.012 404.539 212.441C403.549 212.87 402.668 213.521 401.96 214.346L399.833 212.713C400.866 211.541 402.143 210.618 403.57 210.01C404.998 209.403 406.541 209.126 408.087 209.2C412.519 209.2 415.245 211.305 414.968 214.83C414.569 220.066 409.085 220.46 408.774 224.525H405.683C406.071 219.57 411.544 218.85 411.821 215.246ZM404.863 229.58C404.903 229.019 405.157 228.495 405.571 228.121C405.984 227.747 406.526 227.551 407.079 227.576C407.334 227.566 407.588 227.612 407.823 227.712C408.059 227.811 408.27 227.961 408.443 228.152C408.616 228.342 408.746 228.569 408.824 228.815C408.902 229.062 408.927 229.323 408.896 229.58C408.854 230.125 408.612 230.634 408.218 231.005C407.824 231.376 407.306 231.583 406.769 231.585C406.508 231.604 406.246 231.565 406.001 231.471C405.757 231.376 405.536 231.228 405.354 231.036C405.172 230.845 405.034 230.616 404.949 230.364C404.864 230.112 404.835 229.845 404.863 229.58Z" fill="white"/>
<path d="M365.319 257.944H282.706L282.983 254.386H365.596L365.319 257.944Z" fill="#D8E9A8"/>
<path d="M364.532 268.18H281.919L282.196 264.633H364.809L364.532 268.18Z" fill="#D8E9A8"/>
<path d="M363.756 278.426H281.144L281.41 274.879H364.022L363.756 278.426Z" fill="#D8E9A8"/>
<path d="M362.97 288.673H280.357L280.623 285.115H363.236L362.97 288.673Z" fill="#D8E9A8"/>
<path d="M417.173 288.673H383.468L386.093 254.386H419.799L417.173 288.673Z" fill="#D8E9A8"/>
<path d="M407.844 267.121C407.999 265.105 406.47 263.743 403.7 263.743C402.625 263.691 401.552 263.887 400.562 264.316C399.572 264.745 398.69 265.396 397.982 266.22L395.855 264.61C396.886 263.437 398.163 262.512 399.591 261.904C401.019 261.296 402.563 261.021 404.11 261.097C408.542 261.097 411.267 263.203 410.99 266.727C410.591 271.963 405.107 272.357 404.797 276.422H401.705C402.082 271.366 407.567 270.724 407.844 267.121ZM400.885 281.5C400.922 280.946 401.167 280.429 401.569 280.053C401.971 279.678 402.5 279.475 403.046 279.484C403.302 279.474 403.557 279.521 403.793 279.621C404.029 279.721 404.241 279.872 404.414 280.064C404.587 280.256 404.717 280.484 404.795 280.732C404.872 280.98 404.895 281.242 404.863 281.5C404.819 282.044 404.576 282.551 404.182 282.922C403.789 283.293 403.273 283.501 402.736 283.504C402.479 283.515 402.223 283.47 401.986 283.372C401.748 283.273 401.534 283.124 401.358 282.933C401.182 282.743 401.049 282.517 400.968 282.269C400.886 282.022 400.858 281.759 400.885 281.5Z" fill="white"/>
<path d="M361.341 309.808H278.729L279.006 306.261H361.618L361.341 309.808Z" fill="#D8E9A8"/>
<path d="M360.554 320.054H277.942L278.219 316.496H360.831L360.554 320.054Z" fill="#D8E9A8"/>
<path d="M359.767 330.301H277.166L277.432 326.743H360.044L359.767 330.301Z" fill="#D8E9A8"/>
<path d="M358.992 340.536H276.379L276.645 336.989H359.258L358.992 340.536Z" fill="#D8E9A8"/>
<path d="M413.195 340.536H379.49L382.116 306.261H415.821L413.195 340.536Z" fill="#D8E9A8"/>
<path d="M403.866 318.984C404.021 316.98 402.492 315.606 399.711 315.606C398.638 315.555 397.567 315.752 396.579 316.181C395.59 316.61 394.711 317.26 394.005 318.084L391.877 316.406C392.909 315.232 394.185 314.308 395.614 313.7C397.042 313.092 398.586 312.817 400.132 312.893C404.564 312.893 407.279 314.987 407.013 318.466C406.614 323.714 401.129 324.096 400.819 328.161H397.772C398.104 323.286 403.589 322.588 403.866 318.984ZM396.908 333.296C396.947 332.744 397.193 332.229 397.595 331.856C397.997 331.484 398.524 331.282 399.068 331.292C399.323 331.282 399.577 331.328 399.813 331.427C400.048 331.527 400.259 331.677 400.432 331.868C400.605 332.058 400.735 332.284 400.813 332.531C400.891 332.778 400.916 333.039 400.885 333.296C400.844 333.841 400.602 334.349 400.207 334.721C399.813 335.092 399.296 335.299 398.758 335.3C398.501 335.313 398.244 335.269 398.006 335.172C397.767 335.074 397.552 334.924 397.376 334.734C397.2 334.543 397.067 334.315 396.986 334.067C396.905 333.819 396.878 333.556 396.908 333.296Z" fill="white"/>
<path d="M357.363 361.683H274.751L275.028 358.125H357.64L357.363 361.683Z" fill="#D8E9A8"/>
<path d="M356.577 371.929H273.964L274.241 368.371H356.854L356.577 371.929Z" fill="#D8E9A8"/>
<path d="M355.79 382.165H273.177L273.454 378.618H356.067L355.79 382.165Z" fill="#D8E9A8"/>
<path d="M355.003 392.411H272.391L272.668 388.853H355.28L355.003 392.411Z" fill="#D8E9A8"/>
<path d="M409.218 392.411H375.512L378.138 358.125H411.844L409.218 392.411Z" fill="#D8E9A8"/>
<path d="M399.888 370.859C400.043 368.844 398.514 367.481 395.733 367.481C394.66 367.429 393.589 367.625 392.6 368.054C391.612 368.483 390.732 369.134 390.027 369.959L387.9 368.326C388.931 367.152 390.208 366.228 391.636 365.62C393.064 365.012 394.608 364.736 396.154 364.813C400.586 364.813 403.301 366.918 403.035 370.443C402.636 375.679 397.151 376.073 396.841 380.138H393.75C394.127 375.149 399.611 374.463 399.888 370.859ZM392.93 385.193C392.967 384.64 393.212 384.122 393.614 383.747C394.016 383.372 394.545 383.168 395.091 383.178C395.346 383.167 395.601 383.214 395.838 383.314C396.074 383.414 396.286 383.565 396.459 383.757C396.632 383.949 396.762 384.177 396.839 384.425C396.917 384.673 396.94 384.935 396.908 385.193C396.863 385.737 396.621 386.244 396.227 386.615C395.833 386.986 395.317 387.194 394.78 387.198C394.524 387.209 394.268 387.164 394.03 387.065C393.792 386.967 393.578 386.817 393.403 386.627C393.227 386.437 393.094 386.21 393.012 385.963C392.931 385.715 392.903 385.453 392.93 385.193Z" fill="white"/>
<path opacity="0.7" d="M369.296 206.069H286.684L286.961 202.522H369.573L369.296 206.069Z" fill="white"/>
<path opacity="0.7" d="M368.521 216.316H285.908L286.174 212.758H368.787L368.521 216.316Z" fill="white"/>
<path opacity="0.7" d="M367.734 226.563H285.122L285.388 223.004H368L367.734 226.563Z" fill="white"/>
<path opacity="0.7" d="M366.947 236.798H284.335L284.601 233.251H367.213L366.947 236.798Z" fill="white"/>
<path opacity="0.7" d="M421.151 236.798H387.445L390.082 202.522H423.788L421.151 236.798Z" fill="white"/>
<path opacity="0.7" d="M365.319 257.944H282.706L282.983 254.386H365.596L365.319 257.944Z" fill="white"/>
<path opacity="0.7" d="M364.532 268.18H281.919L282.196 264.633H364.809L364.532 268.18Z" fill="white"/>
<path opacity="0.7" d="M363.756 278.426H281.144L281.41 274.879H364.022L363.756 278.426Z" fill="white"/>
<path opacity="0.7" d="M362.97 288.673H280.357L280.623 285.115H363.236L362.97 288.673Z" fill="white"/>
<path opacity="0.7" d="M417.173 288.673H383.468L386.093 254.386H419.799L417.173 288.673Z" fill="white"/>
<path opacity="0.7" d="M361.341 309.808H278.729L279.006 306.261H361.618L361.341 309.808Z" fill="white"/>
<path opacity="0.7" d="M360.554 320.054H277.942L278.219 316.496H360.831L360.554 320.054Z" fill="white"/>
<path opacity="0.7" d="M359.767 330.301H277.166L277.432 326.743H360.044L359.767 330.301Z" fill="white"/>
<path opacity="0.7" d="M358.992 340.536H276.379L276.645 336.989H359.258L358.992 340.536Z" fill="white"/>
<path opacity="0.7" d="M413.195 340.536H379.49L382.116 306.261H415.821L413.195 340.536Z" fill="white"/>
<path opacity="0.7" d="M357.363 361.683H274.751L275.028 358.125H357.64L357.363 361.683Z" fill="white"/>
<path opacity="0.7" d="M356.577 371.929H273.964L274.241 368.371H356.854L356.577 371.929Z" fill="white"/>
<path opacity="0.7" d="M355.79 382.165H273.177L273.454 378.618H356.067L355.79 382.165Z" fill="white"/>
<path opacity="0.7" d="M355.003 392.411H272.391L272.668 388.853H355.28L355.003 392.411Z" fill="white"/>
<path opacity="0.7" d="M409.218 392.411H375.512L378.138 358.125H411.844L409.218 392.411Z" fill="white"/>
<path d="M221.6 289.382V320.392C221.608 326.506 219.285 332.386 215.118 336.798L186.643 367.076H202.764L232.348 337.485C234.554 335.28 236.307 332.651 237.506 329.751C238.704 326.852 239.323 323.739 239.328 320.595V289.382H221.6Z" fill="#D8E9A8"/>
<path opacity="0.4" d="M239.328 289.382V320.561C239.332 322.308 239.139 324.049 238.752 325.752C237.782 330.211 235.557 334.288 232.348 337.485L202.764 367.076H186.643L215.118 336.798C219.285 332.386 221.608 326.506 221.6 320.392V289.382H239.328Z" fill="white"/>
<path opacity="0.2" d="M239.328 289.382V320.561C239.332 322.308 239.139 324.049 238.752 325.752L221.6 318.714V289.382H239.328Z" fill="black"/>
<path d="M175.44 370.454L151.574 462.853C151.36 463.694 150.878 464.44 150.202 464.972C149.526 465.504 148.695 465.792 147.84 465.792H105.193C104.842 465.791 104.496 465.708 104.181 465.55C103.866 465.392 103.591 465.163 103.376 464.88C103.161 464.598 103.013 464.27 102.944 463.92C102.875 463.57 102.886 463.209 102.977 462.864L126.855 370.454H122.268L98.6893 461.716C98.431 462.727 98.4035 463.785 98.609 464.809C98.8145 465.833 99.2476 466.796 99.8751 467.624C100.503 468.451 101.308 469.122 102.23 469.586C103.151 470.049 104.165 470.292 105.193 470.296H147.84C149.674 470.295 151.455 469.677 152.906 468.538C154.358 467.399 155.397 465.804 155.862 464.002L180.017 370.454H175.44Z" fill="#D8E9A8"/>
<g opacity="0.4">
<path d="M175.44 370.454L151.574 462.853C151.36 463.694 150.878 464.44 150.202 464.972C149.526 465.504 148.695 465.792 147.84 465.792H105.193C104.842 465.791 104.496 465.708 104.181 465.55C103.866 465.392 103.591 465.163 103.376 464.88C103.161 464.598 103.013 464.27 102.944 463.92C102.875 463.57 102.886 463.209 102.977 462.864L126.855 370.454H122.268L98.6893 461.716C98.431 462.727 98.4035 463.785 98.609 464.809C98.8145 465.833 99.2476 466.796 99.8751 467.624C100.503 468.451 101.308 469.122 102.23 469.586C103.151 470.049 104.165 470.292 105.193 470.296H147.84C149.674 470.295 151.455 469.677 152.906 468.538C154.358 467.399 155.397 465.804 155.862 464.002L180.017 370.454H175.44Z" fill="white"/>
</g>
<path d="M185.202 470.296L159.109 369.181L154.821 370.318L180.615 470.296H185.202Z" fill="#D8E9A8"/>
<path d="M238.386 470.296L212.293 369.181L208.005 370.318L233.799 470.296H238.386Z" fill="#D8E9A8"/>
<g opacity="0.5">
<path d="M185.202 470.296L159.109 369.181L154.821 370.318L180.615 470.296H185.202Z" fill="white"/>
</g>
<g opacity="0.5">
<path d="M238.386 470.296L212.293 369.181L208.005 370.318L233.799 470.296H238.386Z" fill="white"/>
</g>
<path opacity="0.2" d="M122.268 370.454H126.855L123.254 384.382L119.01 383.065L122.268 370.454Z" fill="black"/>
<path opacity="0.2" d="M159.109 369.181L165.037 392.163L160.062 390.631L154.821 370.318L159.109 369.181Z" fill="black"/>
<path opacity="0.2" d="M175.441 370.454H180.017L172.504 399.617L168.25 398.3L175.441 370.454Z" fill="black"/>
<path opacity="0.2" d="M222.763 410.032L217.766 408.479L208.005 370.6L212.293 369.361L222.763 410.032Z" fill="black"/>
<path d="M118.223 371.996L97.5039 258.011L97.2269 256.289C97.0222 255.224 97.05 254.126 97.3085 253.074C97.5669 252.021 98.0497 251.039 98.7227 250.197C99.3727 249.406 100.189 248.773 101.111 248.344C102.033 247.915 103.038 247.702 104.052 247.72H148.904C151.033 247.826 153.066 248.65 154.683 250.061C156.3 251.472 157.409 253.389 157.834 255.512L158.167 257.437L178.875 371.163L174.51 371.974L153.735 257.91L153.469 256.311C153.238 255.223 152.671 254.239 151.849 253.503C151.027 252.768 149.995 252.319 148.904 252.224H104.008C103.644 252.209 103.281 252.279 102.947 252.427C102.614 252.575 102.317 252.798 102.08 253.08C101.821 253.423 101.639 253.819 101.548 254.241C101.456 254.663 101.456 255.101 101.548 255.523L101.858 257.415L122.589 371.141L118.223 371.996Z" fill="#D8E9A8"/>
<g opacity="0.5">
<path d="M118.223 371.996L97.5039 258.011L97.2269 256.289C97.0222 255.224 97.05 254.126 97.3085 253.074C97.5669 252.021 98.0497 251.039 98.7227 250.197C99.3727 249.406 100.189 248.773 101.111 248.344C102.033 247.915 103.038 247.702 104.052 247.72H148.904C151.033 247.826 153.066 248.65 154.683 250.061C156.3 251.472 157.409 253.389 157.834 255.512L158.167 257.437L178.875 371.163L174.51 371.974L153.735 257.91L153.469 256.311C153.238 255.223 152.671 254.239 151.849 253.503C151.027 252.768 149.995 252.319 148.904 252.224H104.008C103.644 252.209 103.281 252.279 102.947 252.427C102.614 252.575 102.317 252.798 102.08 253.08C101.821 253.423 101.639 253.819 101.548 254.241C101.456 254.663 101.456 255.101 101.548 255.523L101.858 257.415L122.589 371.141L118.223 371.996Z" fill="white"/>
</g>
<path d="M127.287 360.691H212.525C213.995 360.691 215.404 361.285 216.443 362.34C217.482 363.396 218.065 364.828 218.065 366.321V373.832H121.747V366.299C121.753 364.81 122.339 363.383 123.377 362.332C124.416 361.281 125.821 360.691 127.287 360.691Z" fill="#D8E9A8"/>
<path d="M219.395 367.278H120.417C119.187 367.278 118.19 368.292 118.19 369.542V371.591C118.19 372.841 119.187 373.854 120.417 373.854H219.395C220.625 373.854 221.622 372.841 221.622 371.591V369.542C221.622 368.292 220.625 367.278 219.395 367.278Z" fill="#D8E9A8"/>
<path opacity="0.6" d="M219.395 367.278H120.417C119.187 367.278 118.19 368.292 118.19 369.542V371.591C118.19 372.841 119.187 373.854 120.417 373.854H219.395C220.625 373.854 221.622 372.841 221.622 371.591V369.542C221.622 368.292 220.625 367.278 219.395 367.278Z" fill="white"/>
<path d="M164.35 304.02H108.03L99.6313 257.854H155.94L164.272 303.592L164.35 304.02Z" fill="#D8E9A8"/>
<path d="M219.75 205.642C219.75 205.642 212.669 188.932 212.06 187.141C211.451 185.351 212.171 176.309 211.628 174.755C211.085 173.201 202.864 172.087 201.124 172.289C199.385 172.492 200.914 186.477 201.634 187.581C202.573 188.716 203.632 189.743 204.792 190.643L211.052 209.785L219.75 205.642Z" fill="#B97964"/>
<path d="M183.928 237.181C188.759 237.958 208.536 240.863 212.957 237.868C216.525 235.447 206.476 196.206 206.476 196.206L215.417 192.501C215.417 192.501 236.658 240.041 225.312 250.895C219.55 256.413 203.351 257.809 180.05 257.809L183.928 237.181Z" fill="#D8E9A8"/>
<path opacity="0.8" d="M183.928 237.181C188.759 237.958 208.536 240.863 212.957 237.868C216.525 235.447 206.476 196.206 206.476 196.206L215.417 192.501C215.417 192.501 236.658 240.041 225.312 250.895C219.55 256.413 203.351 257.809 180.05 257.809L183.928 237.181Z" fill="white"/>
<path opacity="0.1" d="M192.116 257.697C188.681 257.798 185.014 257.843 181.158 257.843L184.482 244.905C188.083 248.417 190.716 252.828 192.116 257.697Z" fill="black"/>
<path d="M211.816 264.599L235.261 289.799" stroke="#2E353A" stroke-width="2" stroke-miterlimit="10"/>
<path d="M195.008 279.44C195.008 279.44 212.902 278.877 214.763 278.685C216.625 278.494 224.37 273.99 226.032 273.81C227.694 273.629 232.126 280.746 232.68 282.435C233.234 284.124 220.126 288.628 218.83 288.448C217.421 288.057 216.058 287.513 214.763 286.826L195.008 289.191V279.44Z" fill="#B97964"/>
<path d="M184.482 461.469L193.313 460.241L194.532 438.915L185.723 440.154L184.482 461.469Z" fill="#B97964"/>
<path d="M193.977 459.16L184.005 458.519C183.839 458.506 183.674 458.558 183.544 458.665C183.414 458.771 183.329 458.925 183.307 459.093L182.332 467.087C182.305 467.507 182.442 467.92 182.714 468.237C182.987 468.553 183.371 468.748 183.784 468.776C187.263 468.945 188.936 468.844 193.324 469.092C196.027 469.249 201.334 469.835 205.046 469.463C208.758 469.092 208.304 465.376 206.708 465.196C202.897 464.757 197.844 461.919 195.473 459.757C195.053 459.395 194.527 459.185 193.977 459.16Z" fill="#2E353A"/>
<path d="M197.035 460.894C196.238 460.822 195.451 460.663 194.687 460.421C194.647 460.411 194.612 460.39 194.585 460.36C194.557 460.33 194.539 460.293 194.531 460.253C194.529 460.211 194.537 460.17 194.554 460.133C194.572 460.095 194.598 460.063 194.631 460.039C194.93 459.858 197.556 458.271 198.62 458.766C198.739 458.825 198.841 458.914 198.917 459.024C198.992 459.135 199.039 459.263 199.052 459.397C199.105 459.596 199.104 459.807 199.047 460.006C198.99 460.204 198.881 460.383 198.731 460.523C198.231 460.858 197.626 460.99 197.035 460.894ZM198.443 459.194C197.878 458.924 196.349 459.588 195.274 460.185C196.847 460.602 198.01 460.624 198.465 460.241C198.556 460.144 198.621 460.025 198.654 459.895C198.687 459.765 198.687 459.628 198.653 459.498C198.649 459.433 198.627 459.37 198.589 459.316C198.552 459.263 198.502 459.221 198.443 459.194Z" fill="#D8E9A8"/>
<path d="M194.731 460.421C194.702 460.432 194.671 460.432 194.642 460.421C194.586 460.381 194.546 460.321 194.531 460.253C194.531 460.174 194.531 457.528 195.44 456.706C195.565 456.601 195.712 456.526 195.868 456.485C196.025 456.444 196.189 456.439 196.349 456.469C196.524 456.485 196.69 456.56 196.818 456.682C196.947 456.805 197.031 456.968 197.058 457.145C197.202 458.147 195.761 459.949 194.842 460.421C194.824 460.43 194.805 460.434 194.786 460.434C194.767 460.434 194.748 460.43 194.731 460.421ZM196.171 456.908C196.088 456.902 196.005 456.914 195.926 456.943C195.848 456.972 195.777 457.018 195.717 457.077C195.141 457.561 194.997 459.048 194.964 459.892C195.823 459.253 196.422 458.315 196.648 457.257C196.648 457.134 196.57 456.976 196.271 456.92L196.171 456.908Z" fill="#D8E9A8"/>
<path opacity="0.2" d="M185.723 440.154L194.531 438.926L193.833 451.11L185.036 451.898L185.723 440.154Z" fill="black"/>
<path d="M184.836 336.122L182.687 322.408L133.204 319.401C133.204 319.401 127.941 347.934 131.985 355.535C139.198 369.103 178.1 362.291 189.479 363.586C182.676 391.859 183.341 447.112 183.341 447.112L199.595 448.373C199.595 448.373 212.104 388.842 214.631 360.545C216.337 341.46 200.769 341.933 184.836 336.122Z" fill="#2E353A"/>
<path d="M181.435 447.889L200.969 449.195L202.642 440.694L181.18 439.681L181.435 447.889Z" fill="#D8E9A8"/>
<path d="M204.847 453.508L213.733 454.172L219.295 433.578L210.42 432.925L204.847 453.508Z" fill="#B97964"/>
<path d="M214.608 453.249L204.98 450.524C204.821 450.47 204.648 450.483 204.499 450.559C204.349 450.635 204.235 450.768 204.182 450.929L201.589 458.541C201.534 458.744 201.519 458.957 201.545 459.166C201.57 459.375 201.637 459.577 201.74 459.761C201.843 459.944 201.98 460.104 202.145 460.233C202.309 460.362 202.497 460.457 202.697 460.512C206.021 461.401 207.717 461.638 211.96 462.831C214.564 463.563 219.639 465.252 223.351 465.68C227.062 466.108 227.373 462.369 225.844 461.863C222.209 460.624 217.866 456.773 215.971 454.161C215.632 453.709 215.151 453.387 214.608 453.249Z" fill="#2E353A"/>
<path d="M217.245 455.602C216.473 455.367 215.729 455.042 215.029 454.634C214.992 454.619 214.962 454.593 214.941 454.558C214.921 454.523 214.913 454.483 214.919 454.443C214.921 454.401 214.935 454.362 214.959 454.328C214.982 454.294 215.014 454.268 215.051 454.251C215.373 454.139 218.276 453.125 219.206 453.857C219.314 453.938 219.399 454.046 219.454 454.17C219.508 454.295 219.53 454.431 219.517 454.567C219.531 454.779 219.485 454.992 219.385 455.179C219.285 455.366 219.135 455.521 218.952 455.625C218.4 455.834 217.791 455.826 217.245 455.602ZM218.963 454.229C218.464 453.846 216.835 454.229 215.639 454.533C217.09 455.276 218.231 455.546 218.741 455.265C218.852 455.19 218.942 455.088 219.003 454.968C219.063 454.847 219.091 454.713 219.085 454.578C219.096 454.512 219.089 454.444 219.063 454.382C219.038 454.32 218.995 454.267 218.941 454.229H218.963Z" fill="#D8E9A8"/>
<path d="M215.085 454.656H214.952C214.926 454.632 214.906 454.602 214.895 454.569C214.883 454.536 214.88 454.5 214.885 454.465C214.885 454.386 215.406 451.796 216.492 451.188C216.638 451.12 216.797 451.084 216.957 451.084C217.118 451.084 217.277 451.12 217.423 451.188C217.593 451.243 217.741 451.353 217.843 451.501C217.945 451.65 217.996 451.829 217.988 452.01C217.91 453.012 216.137 454.476 215.14 454.746C215.112 454.724 215.092 454.692 215.085 454.656ZM217.168 451.526C217.088 451.503 217.005 451.497 216.923 451.509C216.841 451.521 216.762 451.549 216.691 451.593C216.027 451.954 215.583 453.373 215.373 454.195C216.281 453.767 217.478 452.629 217.589 451.943C217.589 451.819 217.589 451.661 217.29 451.548L217.168 451.526Z" fill="#D8E9A8"/>
<path opacity="0.2" d="M210.42 432.925L219.295 433.589L216.115 445.356L207.34 444.264L210.42 432.925Z" fill="black"/>
<path d="M222.309 443.903L206.664 439.23C206.664 439.23 216.06 385.655 225.478 367.076C224.769 366.84 223.827 366.536 222.664 366.186C220.569 365.545 217.788 364.745 214.52 363.822C191.784 357.415 145.702 345.401 145.702 345.401L166.754 325.437C166.754 325.437 250.607 338.431 252.347 360.883C253.178 371.681 222.309 443.903 222.309 443.903Z" fill="#2E353A"/>
<path d="M204.647 439.579L223.483 444.995L226.863 437.035L206.077 431.495L204.647 439.579Z" fill="#D8E9A8"/>
<path opacity="0.2" d="M222.708 366.187C220.614 365.545 217.833 364.745 214.564 363.822C215.218 358.372 215.229 352.123 212.647 348.936C207.517 342.586 194.321 338.859 186.809 337.508C180.526 336.382 159.419 334.13 159.419 334.13C159.419 334.13 186.809 331.461 214.819 339.76C228.602 343.881 225.91 357.629 222.708 366.187Z" fill="black"/>
<path d="M183.928 237.181C183.928 237.181 191.108 264.205 182.72 322.408C167.086 322.07 140.816 321.451 133.204 321.282C133.015 313.175 138.899 273.449 132.018 235.131C136.973 234.263 141.983 233.759 147.009 233.623C154.366 233.356 161.731 233.518 169.07 234.107C174.093 234.742 179.06 235.769 183.928 237.181Z" fill="#D8E9A8"/>
<path opacity="0.7" d="M183.928 237.181C183.928 237.181 191.108 264.205 182.72 322.408C167.086 322.07 140.816 321.451 133.204 321.282C133.015 313.175 138.899 273.449 132.018 235.131C136.973 234.263 141.983 233.759 147.009 233.623C154.366 233.356 161.731 233.518 169.07 234.107C174.093 234.742 179.06 235.769 183.928 237.181Z" fill="white"/>
<path opacity="0.1" d="M149.392 284.506C144.96 283.516 139.674 279.181 135.32 274.902C135.32 267.29 134.954 259.194 134.146 250.94C140.306 260.207 156.992 286.207 149.392 284.506Z" fill="black"/>
<path d="M131.985 235.131C115.044 241.336 144.782 287.952 154.012 292.76C163.242 297.568 210.154 287.502 210.154 287.502L208.304 277.863C208.304 277.863 166.798 278.933 162.976 277.953C159.153 276.974 150.067 257.1 144.838 247.72C141.93 242.279 137.442 237.883 131.985 235.131Z" fill="#D8E9A8"/>
<path opacity="0.8" d="M131.985 235.131C115.044 241.336 144.782 287.952 154.012 292.76C163.242 297.568 210.154 287.502 210.154 287.502L208.304 277.863C208.304 277.863 166.798 278.933 162.976 277.953C159.153 276.974 150.067 257.1 144.838 247.72C141.93 242.279 137.442 237.883 131.985 235.131Z" fill="white"/>
<path d="M204.98 276.996L207.384 289.799L211.816 288.256L210.154 276.996H204.98Z" fill="#D8E9A8"/>
<path opacity="0.7" d="M204.98 276.996L207.384 289.799L211.816 288.256L210.154 276.996H204.98Z" fill="white"/>
<path d="M206.176 199.055L218.099 194.258L215.783 190.125L205.201 193.886L206.176 199.055Z" fill="#D8E9A8"/>
<path opacity="0.7" d="M206.176 199.055L218.099 194.258L215.783 190.125L205.201 193.886L206.176 199.055Z" fill="white"/>
<path opacity="0.1" d="M144.306 233.735C144.306 233.735 144.627 238.994 154.788 244.061L161.812 238.892C161.812 238.892 163.818 252.089 165.136 261.942C165.136 261.942 165.048 246.178 163.718 240.12L169.092 242.056C169.092 242.056 164.516 234.073 156.727 232.238C148.937 230.402 144.306 233.735 144.306 233.735Z" fill="black"/>
<path d="M149.691 208.49C150.932 215.73 152.04 228.972 146.976 233.679L161.768 237.868L168.992 234.163C161.114 232.069 161.447 226.101 162.942 220.527L149.691 208.49Z" fill="#B97964"/>
<path opacity="0.2" d="M155.12 213.4L162.987 220.527C162.623 221.824 162.367 223.15 162.222 224.491C159.208 223.984 155.131 220.516 154.876 217.296C154.719 215.993 154.801 214.672 155.12 213.4Z" fill="black"/>
<path d="M160.183 188.369C156.959 191.927 159.74 195.992 170.034 200.935C172.482 195.451 170.986 186.297 167.662 184.698C164.338 183.099 162.998 185.284 160.183 188.369Z" fill="#2E353A"/>
<path d="M145.369 199.561C147.984 208.986 149.048 214.627 154.832 218.489C163.541 224.288 174.211 217.363 174.421 207.33C174.599 198.322 170.299 184.416 160.294 182.649C158.092 182.249 155.826 182.427 153.711 183.166C151.595 183.905 149.701 185.181 148.206 186.872C146.712 188.564 145.667 190.615 145.17 192.831C144.674 195.048 144.742 197.356 145.369 199.539V199.561Z" fill="#B97964"/>
<path d="M159.962 199.088C160.128 199.865 160.671 200.406 161.17 200.293C161.668 200.18 161.934 199.471 161.768 198.694C161.602 197.917 161.07 197.377 160.571 197.478C160.073 197.579 159.851 198.311 159.962 199.088Z" fill="#2E353A"/>
<path d="M168.66 197.185C168.826 197.962 169.369 198.503 169.867 198.39C170.366 198.278 170.643 197.568 170.477 196.78C170.311 195.992 169.768 195.463 169.269 195.575C168.77 195.688 168.493 196.408 168.66 197.185Z" fill="#2E353A"/>
<path d="M165.901 198.176C167.316 200.355 169.024 202.322 170.975 204.02C170.532 204.515 169.989 204.905 169.382 205.163C168.775 205.422 168.12 205.543 167.463 205.518L165.901 198.176Z" fill="#A24E3F"/>
<path d="M156.993 196.825C156.91 196.856 156.82 196.861 156.735 196.839C156.65 196.817 156.574 196.769 156.516 196.702C156.458 196.635 156.422 196.551 156.412 196.463C156.402 196.374 156.419 196.284 156.461 196.205C156.751 195.524 157.198 194.923 157.765 194.455C158.332 193.986 159.002 193.664 159.718 193.514C159.834 193.494 159.953 193.521 160.05 193.588C160.147 193.655 160.215 193.758 160.239 193.875C160.252 193.996 160.219 194.119 160.148 194.217C160.076 194.315 159.97 194.382 159.851 194.404C159.289 194.531 158.764 194.792 158.321 195.166C157.878 195.54 157.529 196.016 157.303 196.555C157.276 196.622 157.234 196.681 157.18 196.728C157.126 196.775 157.062 196.808 156.993 196.825Z" fill="#2E353A"/>
<path d="M171.984 193.334C171.898 193.356 171.809 193.352 171.726 193.322C171.643 193.292 171.571 193.237 171.518 193.165C171.174 192.695 170.726 192.313 170.211 192.051C169.695 191.789 169.126 191.654 168.549 191.656C168.427 191.666 168.307 191.626 168.213 191.546C168.12 191.466 168.062 191.352 168.05 191.229C168.044 191.107 168.082 190.988 168.158 190.894C168.234 190.8 168.342 190.739 168.46 190.722C169.191 190.705 169.915 190.866 170.572 191.191C171.23 191.516 171.801 191.996 172.239 192.591C172.276 192.639 172.304 192.694 172.32 192.753C172.337 192.812 172.342 192.873 172.334 192.934C172.327 192.995 172.308 193.054 172.278 193.107C172.249 193.16 172.209 193.207 172.161 193.244C172.111 193.289 172.049 193.32 171.984 193.334Z" fill="#2E353A"/>
<path d="M147.364 190.294C152.084 190.857 152.572 195.789 147.918 206.34C142.544 203.795 137.813 195.845 139.331 192.445C140.849 189.044 143.187 189.788 147.364 190.294Z" fill="#2E353A"/>
<path d="M142.522 208.186C143.089 209.262 143.86 210.213 144.79 210.986C145.72 211.759 146.79 212.338 147.94 212.69C151.02 213.602 152.594 210.81 151.774 207.837C151.031 205.157 148.527 201.453 145.425 201.847C142.322 202.241 141.126 205.518 142.522 208.186Z" fill="#B97964"/>
<path d="M139.696 191.634C139.696 191.634 137.359 188.572 141.912 182.446C146.466 176.321 157.591 174.44 166.122 176.129C174.654 177.818 169.579 187.389 166.532 188.977L166.909 187.479C163.648 189.208 160.057 190.199 156.383 190.384L158.067 188.797C158.067 188.797 144.682 192.321 139.696 191.634Z" fill="#2E353A"/>
<path d="M166.898 208.108C166.705 209.265 166.597 210.436 166.577 211.61L165.978 211.7C163.231 212.071 161.846 211.317 161.136 210.382C160.8 209.912 160.576 209.368 160.483 208.795C160.437 208.47 160.437 208.14 160.483 207.815C162.279 208.354 164.169 208.492 166.023 208.22C166.532 208.175 166.898 208.108 166.898 208.108Z" fill="#2E353A"/>
<path d="M165.956 208.22L165.834 209.256C163.264 209.594 161.402 209.481 160.483 208.795C160.437 208.47 160.437 208.14 160.483 207.815C162.258 208.344 164.124 208.483 165.956 208.22Z" fill="white"/>
<path d="M165.978 211.688C163.23 212.06 161.845 211.305 161.136 210.371C162.178 210.251 163.232 210.319 164.25 210.574C164.927 210.751 165.532 211.141 165.978 211.688Z" fill="#A24E3F"/>
<path d="M149.58 229.231C149.58 229.231 157.58 235.334 161.768 236.742C161.768 236.742 163.74 232.981 162.931 229.873L168.992 234.163C169.673 236.745 169.673 239.464 168.992 242.045L161.768 237.868L154.943 242.935C154.943 242.935 144.849 239.962 144.261 233.735L149.58 229.231Z" fill="#D8E9A8"/>
<path opacity="0.8" d="M149.58 229.231C149.58 229.231 157.58 235.334 161.768 236.742C161.768 236.742 163.74 232.981 162.931 229.873L168.992 234.163C169.673 236.745 169.673 239.464 168.992 242.045L161.768 237.868L154.943 242.935C154.943 242.935 144.849 239.962 144.261 233.735L149.58 229.231Z" fill="white"/>
<path d="M281.62 286.984H171.186C170.47 286.984 169.89 287.574 169.89 288.301V291.6C169.89 292.328 170.47 292.918 171.186 292.918H281.62C282.336 292.918 282.917 292.328 282.917 291.6V288.301C282.917 287.574 282.336 286.984 281.62 286.984Z" fill="#D8E9A8"/>
<path opacity="0.5" d="M282.54 288.144V291.443C282.54 292.175 282.34 292.76 281.631 292.76H171.186C170.466 292.76 169.524 292.175 169.524 291.443V288.144C169.524 287.423 170.466 287.13 171.186 287.13H281.631C282.34 287.13 282.54 287.423 282.54 288.144Z" fill="white"/>
<path opacity="0.2" d="M216.06 288.144V291.443C216.06 292.175 215.816 292.76 215.107 292.76H171.186C170.466 292.76 169.524 292.175 169.524 291.443V288.144C169.524 287.423 170.466 287.13 171.186 287.13H215.107C215.816 287.13 216.06 287.423 216.06 288.144Z" fill="black"/>
<path d="M190.975 122.88C190.02 119.364 188.203 116.152 185.693 113.545C183.183 110.939 180.063 109.022 176.625 107.975C173.187 106.929 169.544 106.786 166.037 107.562C162.53 108.337 159.274 110.004 156.575 112.408C153.875 114.811 151.82 117.872 150.603 121.303C149.386 124.734 149.045 128.423 149.614 132.024C150.183 135.625 151.642 139.02 153.855 141.892C156.068 144.763 158.962 147.016 162.266 148.44C163.686 149.032 164.831 150.152 165.469 151.571L166.189 153.226L186.587 147.596L186.377 145.794C186.23 144.232 186.66 142.671 187.584 141.414C189.485 138.783 190.778 135.75 191.365 132.541C191.952 129.332 191.818 126.03 190.975 122.88Z" fill="#D8E9A8"/>
<path d="M172.848 153.271C172.848 153.271 169.779 143.486 164.361 139.151L167.363 138.318L167.596 133.622L172.504 140.84L172.106 132.057L176.947 140.063L177.435 135.559L181.723 134.433C179.377 139.788 178.958 145.81 180.537 151.447" stroke="white" stroke-linecap="round" stroke-linejoin="round"/>
<path d="M176.704 151.627C173.092 152.629 171.075 156.851 172.205 161.051C173.336 165.251 177.169 167.807 180.781 166.839C184.393 165.871 186.399 161.626 185.28 157.426C184.161 153.226 180.316 150.636 176.704 151.627Z" fill="#2E353A"/>
<path d="M183.662 162.977L176.393 164.993C174.657 165.473 172.806 165.269 171.212 164.421C169.618 163.573 168.397 162.145 167.795 160.421L165.413 153.586C165.365 153.451 165.346 153.308 165.356 153.165C165.366 153.021 165.404 152.882 165.47 152.755C165.536 152.628 165.627 152.516 165.737 152.427C165.847 152.337 165.975 152.272 166.111 152.235L186.144 146.684C186.28 146.646 186.423 146.637 186.563 146.657C186.703 146.678 186.837 146.728 186.957 146.804C187.076 146.881 187.179 146.981 187.259 147.1C187.338 147.219 187.392 147.353 187.418 147.495L188.781 154.6C189.124 156.395 188.788 158.255 187.838 159.809C186.889 161.362 185.397 162.494 183.662 162.977Z" fill="#D8E9A8"/>
<path opacity="0.4" d="M183.662 162.977L176.393 164.993C174.657 165.473 172.806 165.269 171.212 164.421C169.618 163.573 168.397 162.145 167.795 160.421L165.413 153.586C165.365 153.451 165.346 153.308 165.356 153.165C165.366 153.021 165.404 152.882 165.47 152.755C165.536 152.628 165.627 152.516 165.737 152.427C165.847 152.337 165.975 152.272 166.111 152.235L186.144 146.684C186.28 146.646 186.423 146.637 186.563 146.657C186.703 146.678 186.837 146.728 186.957 146.804C187.076 146.881 187.179 146.981 187.259 147.1C187.338 147.219 187.392 147.353 187.418 147.495L188.781 154.6C189.124 156.395 188.788 158.255 187.838 159.809C186.889 161.362 185.397 162.494 183.662 162.977Z" fill="white"/>
<path d="M142.245 144.409C140.26 144.039 138.247 143.846 136.229 143.835C135.225 143.829 134.222 143.885 133.226 144.004C132.727 144.083 132.229 144.139 131.752 144.263C131.508 144.33 131.265 144.364 131.032 144.454L130.334 144.68L129.536 144.939L130.013 144.229C131.356 142.207 132.426 140.011 133.193 137.698C133.574 136.551 133.852 135.372 134.024 134.174C134.108 133.581 134.16 132.983 134.179 132.384C134.212 131.787 134.212 131.19 134.179 130.593C134.136 130.003 134.055 129.416 133.935 128.837L133.724 127.981L133.447 127.136C133.251 126.584 133.01 126.05 132.727 125.538C132.455 125.021 132.148 124.524 131.808 124.051C131.465 123.579 131.095 123.128 130.7 122.7L130.09 122.069L129.425 121.484C128.993 121.079 128.484 120.763 128.029 120.358C127.575 119.953 127.032 119.727 126.534 119.401L125.426 118.658L126.655 118.061C127.243 117.768 127.863 117.419 128.45 117.059C129.038 116.698 129.625 116.327 130.201 115.933C131.343 115.142 132.428 114.269 133.447 113.32C133.946 112.848 134.434 112.363 134.91 111.857C135.386 111.35 135.819 110.809 136.229 110.269C136.638 109.728 137.037 109.143 137.337 108.569C137.694 107.993 138.016 107.395 138.3 106.778C138.593 106.166 138.845 105.534 139.054 104.887L139.342 103.918L139.553 102.916C139.676 102.255 139.75 101.585 139.774 100.912C139.833 99.5544 139.714 98.1951 139.42 96.8696L139.198 95.8674L138.888 94.8878C138.699 94.2235 138.4 93.6042 138.156 92.9623C137.913 92.3205 137.558 91.7238 137.259 91.0932L135.675 87.7152L138.71 89.697C139.242 90.0573 139.818 90.4063 140.45 90.7329C141.082 91.0594 141.669 91.3747 142.289 91.6562C143.525 92.2426 144.798 92.743 146.101 93.1538C146.755 93.3452 147.408 93.5254 148.062 93.6717C148.716 93.8235 149.378 93.9363 150.045 94.0095C150.703 94.0953 151.366 94.1367 152.029 94.1334C152.684 94.1284 153.339 94.0833 153.99 93.9983L154.943 93.8294L155.884 93.5704C156.493 93.3674 157.085 93.1191 157.657 92.8272C157.943 92.6878 158.217 92.5259 158.477 92.3431C158.755 92.1789 159.018 91.9905 159.264 91.7801C159.772 91.3779 160.253 90.9415 160.704 90.4739C161.147 89.9879 161.558 89.4726 161.934 88.9313C162.325 88.3871 162.677 87.8151 162.987 87.2197C163.33 86.6455 163.563 85.9924 163.862 85.3844C164.161 84.7763 164.338 84.1007 164.582 83.4589L165.967 79.7656L166.654 83.6166C166.77 84.2464 166.929 84.8672 167.131 85.4745C167.715 87.3576 168.606 89.1275 169.768 90.7103C170.533 91.7439 171.44 92.6614 172.46 93.4353C172.963 93.8247 173.497 94.1712 174.056 94.4712C174.614 94.7796 175.196 95.0432 175.795 95.2594C176.396 95.4728 177.011 95.6458 177.635 95.7773C178.267 95.9068 178.908 95.997 179.551 96.0476C180.197 96.0814 180.844 96.0814 181.49 96.0476C182.144 96.0476 182.798 95.9575 183.452 95.9012C184.105 95.8449 184.759 95.6873 185.402 95.5859L187.341 95.113L189.257 94.5275L191.152 93.8406L193.778 92.8835L192.271 95.2594C191.994 95.676 191.717 96.1827 191.462 96.6669C191.207 97.1511 190.975 97.6465 190.753 98.1645C190.317 99.1741 189.973 100.222 189.723 101.295C189.475 102.353 189.352 103.438 189.357 104.526C189.369 105.593 189.552 106.65 189.9 107.657L190.199 108.4L190.576 109.222C190.847 109.678 191.155 110.111 191.496 110.517C191.838 110.919 192.208 111.295 192.604 111.643C193.014 112.005 193.447 112.34 193.9 112.645C194.349 112.956 194.815 113.242 195.296 113.501C195.772 113.771 196.282 113.974 196.781 114.221L198.332 114.818L199.927 115.325L201.035 115.685L200.105 116.417C199.478 116.911 198.889 117.453 198.343 118.038C197.791 118.625 197.28 119.249 196.814 119.908C196.559 120.234 196.36 120.583 196.138 120.921C195.925 121.261 195.732 121.615 195.562 121.979C195.367 122.339 195.204 122.716 195.074 123.105C194.921 123.469 194.798 123.846 194.709 124.231C194.631 124.625 194.498 125.008 194.454 125.357L194.343 126.562C194.343 126.968 194.343 127.373 194.41 127.778C194.432 128.182 194.499 128.583 194.609 128.972C194.682 129.355 194.785 129.732 194.919 130.098L195.374 131.224C195.526 131.617 195.715 131.994 195.939 132.35L196.559 133.476L196.792 133.87H196.36C194.721 133.874 193.09 134.094 191.507 134.523C190.714 134.736 189.948 135.043 189.224 135.435C189.044 135.533 188.87 135.642 188.703 135.762C188.523 135.865 188.356 135.99 188.205 136.133C188.04 136.256 187.884 136.392 187.739 136.539L187.307 137L187.717 136.516C187.851 136.356 188 136.209 188.161 136.077C188.311 135.927 188.474 135.791 188.648 135.672C188.814 135.559 188.98 135.424 189.158 135.322C189.874 134.886 190.636 134.531 191.429 134.264C193.024 133.737 194.684 133.438 196.36 133.374L196.171 133.769L195.484 132.643C195.235 132.289 195.02 131.912 194.842 131.517L194.321 130.391C194.156 129.991 194.029 129.576 193.944 129.152C193.806 128.74 193.717 128.313 193.678 127.88C193.678 127.452 193.579 127.013 193.568 126.585V125.267C193.568 124.839 193.723 124.412 193.789 123.984C193.873 123.554 193.992 123.132 194.144 122.723C194.265 122.303 194.424 121.896 194.62 121.506C194.787 121.118 194.979 120.742 195.196 120.38C195.398 119.993 195.62 119.617 195.861 119.254C196.339 118.536 196.869 117.855 197.446 117.216C198.023 116.564 198.649 115.958 199.318 115.404L199.529 116.53L197.856 116.045L196.205 115.449C195.662 115.212 195.097 114.998 194.587 114.717C194.056 114.453 193.541 114.156 193.047 113.827C192.54 113.504 192.055 113.146 191.595 112.757C191.14 112.366 190.717 111.937 190.332 111.474C189.919 111.01 189.548 110.508 189.224 109.976L188.77 109.165L188.404 108.298C187.978 107.152 187.738 105.943 187.695 104.718C187.651 103.489 187.759 102.26 188.016 101.058C188.262 99.877 188.611 98.7202 189.058 97.6015C189.28 97.0385 189.523 96.4755 189.789 95.9575C190.055 95.4395 190.332 94.8991 190.676 94.3473L191.784 95.7661L189.811 96.498L187.806 97.1285C187.119 97.32 186.432 97.4776 185.745 97.6465C185.058 97.8154 184.36 97.9167 183.651 97.9956C182.942 98.0952 182.228 98.1553 181.513 98.1757C180.774 98.2171 180.035 98.2171 179.297 98.1757C178.575 98.1225 177.857 98.0247 177.147 97.883C176.43 97.7366 175.724 97.5448 175.031 97.3087C174.34 97.0587 173.666 96.7615 173.014 96.4192C172.359 96.0735 171.733 95.6744 171.142 95.2256C169.96 94.3413 168.908 93.2912 168.017 92.1066C167.132 90.9399 166.388 89.6697 165.801 88.3232C165.502 87.6555 165.239 86.9713 165.014 86.2739C164.775 85.5633 164.583 84.8373 164.438 84.1007L166.51 84.2584C166.255 84.9565 166.023 85.6659 165.746 86.3527C165.462 87.0478 165.144 87.728 164.793 88.3908C164.47 89.0661 164.099 89.7171 163.685 90.3388C163.25 90.9695 162.777 91.5712 162.267 92.1404C161.738 92.7018 161.167 93.2213 160.56 93.6942C160.261 93.9387 159.942 94.1572 159.607 94.3473C159.288 94.5641 158.955 94.7596 158.61 94.9328C157.921 95.2814 157.206 95.575 156.472 95.8111L155.364 96.0926L154.256 96.2953C153.521 96.3903 152.78 96.4317 152.04 96.4192C151.299 96.4206 150.558 96.3717 149.824 96.2728C149.078 96.1829 148.339 96.0513 147.608 95.8787C146.888 95.7211 146.178 95.5184 145.48 95.2932C144.092 94.8516 142.737 94.3097 141.425 93.6717C140.76 93.3677 140.118 93.0299 139.486 92.6808C138.854 92.3318 138.234 91.9602 137.58 91.5548L139.032 90.2149C139.353 90.8905 139.697 91.5436 139.985 92.2417C140.281 92.9298 140.544 93.6326 140.771 94.3473L141.104 95.4733L141.347 96.5993C141.497 97.3436 141.608 98.0953 141.68 98.8513C141.723 99.6014 141.723 100.353 141.68 101.103C141.646 101.86 141.557 102.612 141.414 103.355L141.17 104.481L140.838 105.607C140.596 106.331 140.307 107.039 139.974 107.724C139.65 108.407 139.28 109.065 138.866 109.695C138.46 110.31 138.024 110.904 137.558 111.474C137.082 112.059 136.594 112.6 136.084 113.152C135.575 113.703 135.032 114.187 134.489 114.683C133.384 115.649 132.218 116.54 130.999 117.352C130.386 117.757 129.765 118.132 129.137 118.478C128.495 118.838 127.863 119.176 127.165 119.491L127.243 118.151C127.763 118.511 128.351 118.838 128.816 119.209C129.281 119.581 129.835 119.964 130.29 120.414L130.999 121.067L131.652 121.765C132.079 122.245 132.478 122.749 132.849 123.274C133.216 123.81 133.545 124.37 133.835 124.952C134.129 125.525 134.381 126.12 134.589 126.731L134.866 127.666L135.065 128.612C135.183 129.247 135.257 129.891 135.287 130.537C135.365 133.089 134.928 135.629 134.001 138.002C133.119 140.352 131.93 142.572 130.467 144.601L130.146 144.15L130.888 143.936C131.143 143.858 131.398 143.824 131.652 143.767C132.151 143.655 132.661 143.621 133.17 143.554C134.189 143.492 135.21 143.492 136.229 143.554C138.254 143.663 140.267 143.949 142.245 144.409Z" fill="#D8E9A8"/>
<path opacity="0.7" d="M142.245 144.409C140.26 144.039 138.247 143.846 136.229 143.835C135.225 143.829 134.222 143.885 133.226 144.004C132.727 144.083 132.229 144.139 131.752 144.263C131.508 144.33 131.265 144.364 131.032 144.454L130.334 144.68L129.536 144.939L130.013 144.229C131.356 142.207 132.426 140.011 133.193 137.698C133.574 136.551 133.852 135.372 134.024 134.174C134.108 133.581 134.16 132.983 134.179 132.384C134.212 131.787 134.212 131.19 134.179 130.593C134.136 130.003 134.055 129.416 133.935 128.837L133.724 127.981L133.447 127.136C133.251 126.584 133.01 126.05 132.727 125.538C132.455 125.021 132.148 124.524 131.808 124.051C131.465 123.579 131.095 123.128 130.7 122.7L130.09 122.069L129.425 121.484C128.993 121.079 128.484 120.763 128.029 120.358C127.575 119.953 127.032 119.727 126.534 119.401L125.426 118.658L126.655 118.061C127.243 117.768 127.863 117.419 128.45 117.059C129.038 116.698 129.625 116.327 130.201 115.933C131.343 115.142 132.428 114.269 133.447 113.32C133.946 112.848 134.434 112.363 134.91 111.857C135.386 111.35 135.819 110.809 136.229 110.269C136.638 109.728 137.037 109.143 137.337 108.569C137.694 107.993 138.016 107.395 138.3 106.778C138.593 106.166 138.845 105.534 139.054 104.887L139.342 103.918L139.553 102.916C139.676 102.255 139.75 101.585 139.774 100.912C139.833 99.5544 139.714 98.1951 139.42 96.8696L139.198 95.8674L138.888 94.8878C138.699 94.2235 138.4 93.6042 138.156 92.9623C137.913 92.3205 137.558 91.7238 137.259 91.0932L135.675 87.7152L138.71 89.697C139.242 90.0573 139.818 90.4063 140.45 90.7329C141.082 91.0594 141.669 91.3747 142.289 91.6562C143.525 92.2426 144.798 92.743 146.101 93.1538C146.755 93.3452 147.408 93.5254 148.062 93.6717C148.716 93.8235 149.378 93.9363 150.045 94.0095C150.703 94.0953 151.366 94.1367 152.029 94.1334C152.684 94.1284 153.339 94.0833 153.99 93.9983L154.943 93.8294L155.884 93.5704C156.493 93.3674 157.085 93.1191 157.657 92.8272C157.943 92.6878 158.217 92.5259 158.477 92.3431C158.755 92.1789 159.018 91.9905 159.264 91.7801C159.772 91.3779 160.253 90.9415 160.704 90.4739C161.147 89.9879 161.558 89.4726 161.934 88.9313C162.325 88.3871 162.677 87.8151 162.987 87.2197C163.33 86.6455 163.563 85.9924 163.862 85.3844C164.161 84.7763 164.338 84.1007 164.582 83.4589L165.967 79.7656L166.654 83.6166C166.77 84.2464 166.929 84.8672 167.131 85.4745C167.715 87.3576 168.606 89.1275 169.768 90.7103C170.533 91.7439 171.44 92.6614 172.46 93.4353C172.963 93.8247 173.497 94.1712 174.056 94.4712C174.614 94.7796 175.196 95.0432 175.795 95.2594C176.396 95.4728 177.011 95.6458 177.635 95.7773C178.267 95.9068 178.908 95.997 179.551 96.0476C180.197 96.0814 180.844 96.0814 181.49 96.0476C182.144 96.0476 182.798 95.9575 183.452 95.9012C184.105 95.8449 184.759 95.6873 185.402 95.5859L187.341 95.113L189.257 94.5275L191.152 93.8406L193.778 92.8835L192.271 95.2594C191.994 95.676 191.717 96.1827 191.462 96.6669C191.207 97.1511 190.975 97.6465 190.753 98.1645C190.317 99.1741 189.973 100.222 189.723 101.295C189.475 102.353 189.352 103.438 189.357 104.526C189.369 105.593 189.552 106.65 189.9 107.657L190.199 108.4L190.576 109.222C190.847 109.678 191.155 110.111 191.496 110.517C191.838 110.919 192.208 111.295 192.604 111.643C193.014 112.005 193.447 112.34 193.9 112.645C194.349 112.956 194.815 113.242 195.296 113.501C195.772 113.771 196.282 113.974 196.781 114.221L198.332 114.818L199.927 115.325L201.035 115.685L200.105 116.417C199.478 116.911 198.889 117.453 198.343 118.038C197.791 118.625 197.28 119.249 196.814 119.908C196.559 120.234 196.36 120.583 196.138 120.921C195.925 121.261 195.732 121.615 195.562 121.979C195.367 122.339 195.204 122.716 195.074 123.105C194.921 123.469 194.798 123.846 194.709 124.231C194.631 124.625 194.498 125.008 194.454 125.357L194.343 126.562C194.343 126.968 194.343 127.373 194.41 127.778C194.432 128.182 194.499 128.583 194.609 128.972C194.682 129.355 194.785 129.732 194.919 130.098L195.374 131.224C195.526 131.617 195.715 131.994 195.939 132.35L196.559 133.476L196.792 133.87H196.36C194.721 133.874 193.09 134.094 191.507 134.523C190.714 134.736 189.948 135.043 189.224 135.435C189.044 135.533 188.87 135.642 188.703 135.762C188.523 135.865 188.356 135.99 188.205 136.133C188.04 136.256 187.884 136.392 187.739 136.539L187.307 137L187.717 136.516C187.851 136.356 188 136.209 188.161 136.077C188.311 135.927 188.474 135.791 188.648 135.672C188.814 135.559 188.98 135.424 189.158 135.322C189.874 134.886 190.636 134.531 191.429 134.264C193.024 133.737 194.684 133.438 196.36 133.374L196.171 133.769L195.484 132.643C195.235 132.289 195.02 131.912 194.842 131.517L194.321 130.391C194.156 129.991 194.029 129.576 193.944 129.152C193.806 128.74 193.717 128.313 193.678 127.88C193.678 127.452 193.579 127.013 193.568 126.585V125.267C193.568 124.839 193.723 124.412 193.789 123.984C193.873 123.554 193.992 123.132 194.144 122.723C194.265 122.303 194.424 121.896 194.62 121.506C194.787 121.118 194.979 120.742 195.196 120.38C195.398 119.993 195.62 119.617 195.861 119.254C196.339 118.536 196.869 117.855 197.446 117.216C198.023 116.564 198.649 115.958 199.318 115.404L199.529 116.53L197.856 116.045L196.205 115.449C195.662 115.212 195.097 114.998 194.587 114.717C194.056 114.453 193.541 114.156 193.047 113.827C192.54 113.504 192.055 113.146 191.595 112.757C191.14 112.366 190.717 111.937 190.332 111.474C189.919 111.01 189.548 110.508 189.224 109.976L188.77 109.165L188.404 108.298C187.978 107.152 187.738 105.943 187.695 104.718C187.651 103.489 187.759 102.26 188.016 101.058C188.262 99.877 188.611 98.7202 189.058 97.6015C189.28 97.0385 189.523 96.4755 189.789 95.9575C190.055 95.4395 190.332 94.8991 190.676 94.3473L191.784 95.7661L189.811 96.498L187.806 97.1285C187.119 97.32 186.432 97.4776 185.745 97.6465C185.058 97.8154 184.36 97.9167 183.651 97.9956C182.942 98.0952 182.228 98.1553 181.513 98.1757C180.774 98.2171 180.035 98.2171 179.297 98.1757C178.575 98.1225 177.857 98.0247 177.147 97.883C176.43 97.7366 175.724 97.5448 175.031 97.3087C174.34 97.0587 173.666 96.7615 173.014 96.4192C172.359 96.0735 171.733 95.6744 171.142 95.2256C169.96 94.3413 168.908 93.2912 168.017 92.1066C167.132 90.9399 166.388 89.6697 165.801 88.3232C165.502 87.6555 165.239 86.9713 165.014 86.2739C164.775 85.5633 164.583 84.8373 164.438 84.1007L166.51 84.2584C166.255 84.9565 166.023 85.6659 165.746 86.3527C165.462 87.0478 165.144 87.728 164.793 88.3908C164.47 89.0661 164.099 89.7171 163.685 90.3388C163.25 90.9695 162.777 91.5712 162.267 92.1404C161.738 92.7018 161.167 93.2213 160.56 93.6942C160.261 93.9387 159.942 94.1572 159.607 94.3473C159.288 94.5641 158.955 94.7596 158.61 94.9328C157.921 95.2814 157.206 95.575 156.472 95.8111L155.364 96.0926L154.256 96.2953C153.521 96.3903 152.78 96.4317 152.04 96.4192C151.299 96.4206 150.558 96.3717 149.824 96.2728C149.078 96.1829 148.339 96.0513 147.608 95.8787C146.888 95.7211 146.178 95.5184 145.48 95.2932C144.092 94.8516 142.737 94.3097 141.425 93.6717C140.76 93.3677 140.118 93.0299 139.486 92.6808C138.854 92.3318 138.234 91.9602 137.58 91.5548L139.032 90.2149C139.353 90.8905 139.697 91.5436 139.985 92.2417C140.281 92.9298 140.544 93.6326 140.771 94.3473L141.104 95.4733L141.347 96.5993C141.497 97.3436 141.608 98.0953 141.68 98.8513C141.723 99.6014 141.723 100.353 141.68 101.103C141.646 101.86 141.557 102.612 141.414 103.355L141.17 104.481L140.838 105.607C140.596 106.331 140.307 107.039 139.974 107.724C139.65 108.407 139.28 109.065 138.866 109.695C138.46 110.31 138.024 110.904 137.558 111.474C137.082 112.059 136.594 112.6 136.084 113.152C135.575 113.703 135.032 114.187 134.489 114.683C133.384 115.649 132.218 116.54 130.999 117.352C130.386 117.757 129.765 118.132 129.137 118.478C128.495 118.838 127.863 119.176 127.165 119.491L127.243 118.151C127.763 118.511 128.351 118.838 128.816 119.209C129.281 119.581 129.835 119.964 130.29 120.414L130.999 121.067L131.652 121.765C132.079 122.245 132.478 122.749 132.849 123.274C133.216 123.81 133.545 124.37 133.835 124.952C134.129 125.525 134.381 126.12 134.589 126.731L134.866 127.666L135.065 128.612C135.183 129.247 135.257 129.891 135.287 130.537C135.365 133.089 134.928 135.629 134.001 138.002C133.119 140.352 131.93 142.572 130.467 144.601L130.146 144.15L130.888 143.936C131.143 143.858 131.398 143.824 131.652 143.767C132.151 143.655 132.661 143.621 133.17 143.554C134.189 143.492 135.21 143.492 136.229 143.554C138.254 143.663 140.267 143.949 142.245 144.409Z" fill="white"/>
<path d="M297.497 178.958C297.497 182.351 299.029 184.047 302.093 184.047C305.093 184.047 306.593 182.351 306.593 178.958C306.593 175.613 305.093 173.94 302.093 173.94C299.029 173.94 297.497 175.613 297.497 178.958ZM295.783 179.011C295.783 174.751 297.886 172.622 302.093 172.622C306.236 172.622 308.307 174.751 308.307 179.011C308.307 182.515 306.886 184.583 304.044 185.216L306.083 187.589L304.818 188.539L302.093 185.366C297.886 185.366 295.783 183.248 295.783 179.011ZM310.777 180.426V172.709H312.403V180.426C312.403 182.84 313.604 184.047 316.006 184.047C318.409 184.047 319.61 182.84 319.61 180.426V172.709H321.236V180.426C321.236 183.719 319.493 185.366 316.006 185.366C312.52 185.366 310.777 183.719 310.777 180.426ZM326.026 172.709V185.278H324.4V172.709H326.026ZM338.383 172.709V174.028L330.851 183.959H338.208V185.278H328.891V183.959L336.661 174.028H329.067V172.709H338.383ZM346.645 178.958C346.645 182.351 348.177 184.047 351.242 184.047C354.242 184.047 355.742 182.351 355.742 178.958C355.742 175.613 354.242 173.94 351.242 173.94C348.177 173.94 346.645 175.613 346.645 178.958ZM344.931 179.011C344.931 174.751 347.035 172.622 351.242 172.622C355.384 172.622 357.456 174.751 357.456 179.011C357.456 182.515 356.035 184.583 353.193 185.216L355.232 187.589L353.966 188.539L351.242 185.366C347.035 185.366 344.931 183.248 344.931 179.011ZM359.925 180.426V172.709H361.551V180.426C361.551 182.84 362.752 184.047 365.155 184.047C367.557 184.047 368.758 182.84 368.758 180.426V172.709H370.384V180.426C370.384 183.719 368.641 185.366 365.155 185.366C361.668 185.366 359.925 183.719 359.925 180.426ZM381.502 172.709V174.028H374.911V178.247H381.195V179.565H374.911V183.959H381.634V185.278H373.285V172.709H381.502ZM383.919 184.838V183.344C385.238 183.813 386.662 184.047 388.191 184.047C390.353 184.047 391.434 183.256 391.434 181.674C391.434 180.327 390.637 179.653 389.043 179.653H387.426C384.795 179.653 383.48 178.51 383.48 176.225C383.48 173.823 385.165 172.622 388.534 172.622C389.999 172.622 391.361 172.797 392.621 173.149V174.643C391.361 174.174 389.999 173.94 388.534 173.94C386.249 173.94 385.106 174.702 385.106 176.225C385.106 177.573 385.879 178.247 387.426 178.247H389.043C391.721 178.247 393.06 179.389 393.06 181.674C393.06 184.135 391.437 185.366 388.191 185.366C386.662 185.366 385.238 185.19 383.919 184.838ZM403.915 172.709V174.028H399.959V185.278H398.333V174.028H394.378V172.709H403.915Z" fill="#D8E9A8"/>
</svg>
